HIERARCHY
ROOT Hips
{
	OFFSET 0.000000 0.000000 0.000000
	CHANNELS 6 Xposition Yposition Zposition Xrotation Yrotation Zrotation
	JOINT LeftUpLeg_virtual
	{
		OFFSET 0.000000 0.000000 0.000000
		CHANNELS 3 Xrotation Yrotation Zrotation
		JOINT LeftUpLeg
		{
			OFFSET 11.394100 -6.187798 -0.413800
			CHANNELS 3 Xrotation Yrotation Zrotation
			JOINT LeftLeg
			{
				OFFSET 0.430247 -32.302673 3.732800
				CHANNELS 3 Xrotation Yrotation Zrotation
				JOINT LeftFoot
				{
					OFFSET -0.430247 -48.264931 -6.423300
					CHANNELS 3 Xrotation Yrotation Zrotation
					JOINT LeftToeBase
					{
						OFFSET 4.230900 -16.068199 23.438400
						CHANNELS 3 Xrotation Yrotation Zrotation
						JOINT LeftToe_End
						{
							OFFSET 4.510700 0.695400 19.974600
							CHANNELS 3 Xrotation Yrotation Zrotation
							End Site
							{
								OFFSET 0 0 0
							}
						}
					}
				}
			}
		}
	}
	JOINT RightUpLeg_virtual
	{
		OFFSET 0.000000 0.000000 0.000000
		CHANNELS 3 Xrotation Yrotation Zrotation
		JOINT RightUpLeg
		{
			OFFSET -11.333700 -6.187798 -0.413800
			CHANNELS 3 Xrotation Yrotation Zrotation
			JOINT RightLeg
			{
				OFFSET -0.430392 -32.302628 3.733000
				CHANNELS 3 Xrotation Yrotation Zrotation
				JOINT RightFoot
				{
					OFFSET 0.430392 -48.264973 -6.423500
					CHANNELS 3 Xrotation Yrotation Zrotation
					JOINT RightToeBase
					{
						OFFSET -4.230900 -16.068199 23.438400
						CHANNELS 3 Xrotation Yrotation Zrotation
						JOINT RightToe_End
						{
							OFFSET -4.510700 0.695400 19.974600
							CHANNELS 3 Xrotation Yrotation Zrotation
							End Site
							{
								OFFSET 0 0 0
							}
						}
					}
				}
			}
		}
	}
	JOINT Spine_virtual
	{
		OFFSET 0.000000 0.000000 0.000000
		CHANNELS 3 Xrotation Yrotation Zrotation
		JOINT Spine
		{
			OFFSET -0.002400 12.777504 0.315300
			CHANNELS 3 Xrotation Yrotation Zrotation
			JOINT Spine1
			{
				OFFSET -0.002067 5.816869 0.032633
				CHANNELS 3 Xrotation Yrotation Zrotation
				JOINT Spine1_split
				{
					OFFSET -0.002067 5.816869 0.032633
					CHANNELS 3 Xrotation Yrotation Zrotation
					JOINT Spine2
					{
						OFFSET -0.002067 5.816869 0.032633
						CHANNELS 3 Xrotation Yrotation Zrotation
						JOINT Neck_virtual
						{
							OFFSET 0.000000 0.000000 0.000000
							CHANNELS 3 Xrotation Yrotation Zrotation
							JOINT Neck
							{
								OFFSET -0.003700 21.199493 -0.826900
								CHANNELS 3 Xrotation Yrotation Zrotation
								JOINT Head
								{
									OFFSET 0.000000 20.442200 4.834800
									CHANNELS 3 Xrotation Yrotation Zrotation
									JOINT HeadTop_End
									{
										OFFSET 0.000000 34.668396 4.968400
										CHANNELS 3 Xrotation Yrotation Zrotation
										End Site
										{
											OFFSET 0 0 0
										}
									}
								}
							}
						}
						JOINT LeftShoulder_virtual
						{
							OFFSET 0.000000 0.000000 0.000000
							CHANNELS 3 Xrotation Yrotation Zrotation
							JOINT LeftShoulder
							{
								OFFSET 3.288150 8.794197 -1.372250
								CHANNELS 3 Xrotation Yrotation Zrotation
								JOINT LeftShoulder_split
								{
									OFFSET 3.288150 8.794197 -1.372250
									CHANNELS 3 Xrotation Yrotation Zrotation
									JOINT LeftArm
									{
										OFFSET 11.953299 -2.279007 -0.146200
										CHANNELS 3 Xrotation Yrotation Zrotation
										JOINT LeftForeArm
										{
											OFFSET 18.448900 0.000000 0.000000
											CHANNELS 3 Xrotation Yrotation Zrotation
											JOINT LeftHand
											{
												OFFSET 29.527798 0.000000 0.000000
												CHANNELS 3 Xrotation Yrotation Zrotation
												End Site
												{
													OFFSET 0 0 0
												}
											}
										}
									}
								}
							}
						}
						JOINT RightShoulder_virtual
						{
							OFFSET 0.000000 0.000000 0.000000
							CHANNELS 3 Xrotation Yrotation Zrotation
							JOINT RightShoulder
							{
								OFFSET -3.249400 8.794197 -1.372250
								CHANNELS 3 Xrotation Yrotation Zrotation
								JOINT RightShoulder_split
								{
									OFFSET -3.249400 8.794197 -1.372250
									CHANNELS 3 Xrotation Yrotation Zrotation
									JOINT RightArm
									{
										OFFSET -11.953299 -2.279007 -0.146200
										CHANNELS 3 Xrotation Yrotation Zrotation
										JOINT RightForeArm
										{
											OFFSET -18.448900 0.000000 0.000000
											CHANNELS 3 Xrotation Yrotation Zrotation
											JOINT RightHand
											{
												OFFSET -29.527802 0.000000 0.000000
												CHANNELS 3 Xrotation Yrotation Zrotation
												End Site
												{
													OFFSET 0 0 0
												}
											}
										}
									}
								}
							}
						}
					}
				}
			}
		}
	}
}
MOTION
Frames: 10
Frame Time: 0.03333333
1.555303 95.230232 -2.729263 0.000000 0.000000 0.000000 3.170376 -9.606040 -1.261376 -38.136300 4.846228 7.526730 27.671721 3.298373 4.031121 4.289911 -1.165091 -3.195770 2.649533 -1.351742 -1.875216 0.000000 0.000000 0.000000 2.951686 -10.219918 -1.235608 -15.061602 -11.938747 -13.030818 25.328122 -11.402614 0.087614 -14.355891 -3.575113 13.696846 0.577498 0.363998 0.789137 0.000000 0.000000 0.000000 4.062131 -9.038528 -1.669673 21.482350 4.677014 1.664247 1.873472 1.993616 -0.451801 0.500334 -0.374032 0.262491 0.000000 0.000000 0.000000 2.595672 2.035761 -0.157081 -5.448778 16.326655 1.466519 7.861589 48.343970 -21.667682 0.000000 0.000000 0.000000 2.842000 2.330805 -0.429095 2.218352 -35.015795 5.812228 0.327852 0.627969 -4.663562 -25.063386 -15.809202 -66.618325 -0.318983 -45.718742 -7.865436 0.000000 0.000000 0.000000 3.380375 2.095151 -0.396527 8.584896 21.358772 -10.250276 -1.147630 3.658177 0.322094 -42.657325 14.578033 82.100875 -0.694611 53.117982 2.887249 0.000000 0.000000 0.000000 
1.714355 95.253120 -2.139275 0.000000 0.000000 0.000000 3.204022 -8.875960 -1.394910 -38.169440 4.970896 7.185129 27.973815 2.923090 4.070123 3.788090 -1.135658 -2.872293 2.576317 -1.384398 -1.810187 0.000000 0.000000 0.000000 2.969297 -9.540023 -1.367174 -14.215215 -11.901356 -13.076651 24.834008 -12.015797 0.074028 -14.359144 -3.677914 14.322480 0.580565 0.256298 0.940201 0.000000 0.000000 0.000000 4.152230 -8.337392 -1.778940 21.286932 4.749899 1.310662 1.823704 2.090430 -0.635895 0.500187 -0.364452 0.236064 0.000000 0.000000 0.000000 2.565056 2.130121 -0.372120 -5.494161 16.191549 1.777946 6.926923 48.003290 -20.762274 0.000000 0.000000 0.000000 2.851944 2.415636 -0.685533 2.078901 -35.564672 5.770290 0.100728 0.576270 -4.960304 -24.684543 -15.743695 -66.452659 -0.256255 -45.501706 -6.742601 0.000000 0.000000 0.000000 3.396299 2.232091 -0.636492 8.430223 20.484296 -9.981882 -0.897121 3.801998 0.288120 -42.984320 15.145750 83.051699 -0.698756 52.564699 2.470932 0.000000 0.000000 0.000000 
1.847791 95.267044 -1.555351 0.000000 0.000000 0.000000 3.260827 -8.234710 -1.470901 -38.215957 5.038013 6.857223 28.329641 2.630160 4.105413 3.293735 -1.094469 -2.607367 2.510929 -1.415251 -1.747240 0.000000 0.000000 0.000000 3.002764 -8.963717 -1.436186 -13.501960 -11.809692 -13.141999 24.443393 -12.528034 0.026244 -14.379584 -3.773054 14.939116 0.545253 0.167679 1.074978 0.000000 0.000000 0.000000 4.266245 -7.740264 -1.823390 21.089497 4.768872 0.923601 1.784674 2.167490 -0.814291 0.511304 -0.347568 0.229457 0.000000 0.000000 0.000000 2.545642 2.207206 -0.585178 -5.588306 15.947853 2.129933 5.720041 47.477622 -19.550073 0.000000 0.000000 0.000000 2.861607 2.483101 -0.935132 1.938739 -36.078582 5.734742 -0.085789 0.556259 -5.190236 -24.102792 -15.831960 -66.236101 -0.234637 -45.450722 -5.661888 0.000000 0.000000 0.000000 3.407338 2.349312 -0.863925 8.320539 19.859521 -9.788867 -0.729784 3.897358 0.307603 -43.213852 15.499497 83.863303 -0.780448 52.186566 2.203878 0.000000 0.000000 0.000000 
1.958365 95.267540 -1.001854 0.000000 0.000000 0.000000 3.346898 -7.683972 -1.500131 -38.286933 5.022184 6.538096 28.742426 2.405444 4.143871 2.823613 -1.048225 -2.414919 2.471645 -1.442591 -1.698488 0.000000 0.000000 0.000000 3.063927 -8.474110 -1.455547 -12.901903 -11.671831 -13.211872 24.116501 -12.955026 -0.054556 -14.472293 -3.869938 15.508945 0.525712 0.104802 1.186851 0.000000 0.000000 0.000000 4.407336 -7.249987 -1.824821 20.897044 4.726563 0.510651 1.752844 2.221961 -0.982760 0.497601 -0.302467 0.238195 0.000000 0.000000 0.000000 2.526864 2.264203 -0.793561 -5.742853 15.622205 2.537794 4.357443 46.843394 -18.077561 0.000000 0.000000 0.000000 2.870492 2.531438 -1.168424 1.815829 -36.581390 5.748203 -0.230959 0.572901 -5.355883 -23.347139 -16.053736 -65.992161 -0.252382 -45.550248 -4.639488 0.000000 0.000000 0.000000 3.414490 2.443414 -1.071457 8.248172 19.477937 -9.664885 -0.624207 3.949072 0.338019 -43.307077 15.630382 84.502049 -0.903238 51.923634 2.049368 0.000000 0.000000 0.000000 
2.058079 95.258827 -0.468922 0.000000 0.000000 0.000000 3.471453 -7.227212 -1.496118 -38.384519 4.915191 6.226064 29.198652 2.241869 4.190693 2.371926 -0.996046 -2.296978 2.474798 -1.464748 -1.674533 0.000000 0.000000 0.000000 3.160830 -8.066463 -1.439983 -12.399867 -11.507618 -13.271749 23.843723 -13.327944 -0.155652 -14.637859 -3.979767 15.992902 0.569874 0.073541 1.267171 0.000000 0.000000 0.000000 4.569613 -6.877221 -1.798557 20.720494 4.625392 0.085741 1.728547 2.250219 -1.137880 0.477612 -0.231708 0.252196 0.000000 0.000000 0.000000 2.505151 2.300115 -0.993064 -5.961734 15.244473 3.022227 2.948646 46.178742 -16.420249 0.000000 0.000000 0.000000 2.878934 2.555116 -1.379930 1.717923 -37.097848 5.823074 -0.348948 0.683899 -5.477236 -22.476793 -16.378015 -65.757790 -0.305694 -45.740411 -3.677343 0.000000 0.000000 0.000000 3.418474 2.511702 -1.259720 8.207581 19.312642 -9.610169 -0.573743 3.972163 0.353489 -43.271875 15.538615 84.946523 -1.040865 51.762332 1.971675 0.000000 0.000000 0.000000 
2.148475 95.243652 0.024235 0.000000 0.000000 0.000000 3.629545 -6.857378 -1.473681 -38.497019 4.735657 5.929065 29.660144 2.138024 4.245114 1.928159 -0.940725 -2.247674 2.512480 -1.480773 -1.670900 0.000000 0.000000 0.000000 3.289349 -7.737144 -1.404836 -12.002411 -11.341866 -13.320348 23.616373 -13.659215 -0.261910 -14.825390 -4.099396 16.396723 0.669107 0.076126 1.299930 0.000000 0.000000 0.000000 4.742383 -6.614903 -1.756472 20.572771 4.474440 -0.334787 1.703556 2.250746 -1.279507 0.479782 -0.149399 0.254254 0.000000 0.000000 0.000000 2.478004 2.313345 -1.182031 -6.242989 14.844072 3.574909 1.583900 45.549261 -14.676815 0.000000 0.000000 0.000000 2.886033 2.553431 -1.570119 1.647591 -37.648874 5.944814 -0.504496 0.867388 -5.569287 -21.513269 -16.776125 -65.540105 -0.391215 -45.954886 -2.772482 0.000000 0.000000 0.000000 3.421414 2.549947 -1.429746 8.191283 19.323239 -9.619850 -0.554360 4.041758 0.306540 -43.134779 15.288649 85.234880 -1.169567 51.712858 1.941540 0.000000 0.000000 0.000000 
2.226416 95.227882 0.477867 0.000000 0.000000 0.000000 3.814974 -6.572075 -1.440498 -38.613884 4.519473 5.659580 30.080061 2.088231 4.300451 1.507108 -0.889177 -2.262220 2.552744 -1.490027 -1.675210 0.000000 0.000000 0.000000 3.439212 -7.473585 -1.360145 -11.719443 -11.199261 -13.364408 23.410146 -13.940613 -0.364516 -14.968078 -4.213770 16.770848 0.755558 0.108699 1.274521 0.000000 0.000000 0.000000 4.920940 -6.458689 -1.702959 20.462861 4.289172 -0.735707 1.672657 2.226680 -1.408031 0.463122 -0.076829 0.236980 0.000000 0.000000 0.000000 2.451700 2.307446 -1.358627 -6.576743 14.456671 4.176685 0.305897 45.011992 -12.959771 0.000000 0.000000 0.000000 2.895126 2.528364 -1.737756 1.600765 -38.242407 6.091694 -0.709216 1.111300 -5.653955 -20.513872 -17.187445 -65.367827 -0.527652 -46.122485 -1.930247 0.000000 0.000000 0.000000 3.424505 2.560131 -1.582846 8.195537 19.467028 -9.687159 -0.531955 4.183403 0.223323 -42.928664 14.947234 85.418025 -1.266015 51.756957 1.935907 0.000000 0.000000 0.000000 
2.293354 95.216171 0.877975 0.000000 0.000000 0.000000 4.013136 -6.360876 -1.399084 -38.739187 4.302950 5.429311 30.429135 2.082945 4.349021 1.140858 -0.844562 -2.332257 2.570791 -1.494360 -1.676338 0.000000 0.000000 0.000000 3.606821 -7.275498 -1.308322 -11.545501 -11.090159 -13.411808 23.212077 -14.163670 -0.459446 -15.042353 -4.308223 17.130114 0.783394 0.165557 1.195854 0.000000 0.000000 0.000000 5.096608 -6.403611 -1.632795 20.392822 4.087525 -1.104652 1.636260 2.184670 -1.522454 0.457380 -0.033783 0.223622 0.000000 0.000000 0.000000 2.431304 2.289816 -1.520196 -6.949199 14.105549 4.777878 -0.857162 44.598881 -11.383964 0.000000 0.000000 0.000000 2.903425 2.489625 -1.884691 1.565484 -38.866905 6.222406 -0.960831 1.379852 -5.728260 -19.539392 -17.579271 -65.258059 -0.691133 -46.193840 -1.136032 0.000000 0.000000 0.000000 3.430045 2.550661 -1.720269 8.212702 19.695462 -9.797828 -0.469715 4.350818 0.135575 -42.677874 14.580808 85.535873 -1.322740 51.882124 1.937099 0.000000 0.000000 0.000000 
2.342912 95.213814 1.227577 0.000000 0.000000 0.000000 4.207310 -6.213931 -1.346891 -38.868066 4.121616 5.246404 30.696062 2.111796 4.384120 0.856078 -0.802247 -2.434098 2.579727 -1.495829 -1.677519 0.000000 0.000000 0.000000 3.774475 -7.139267 -1.247437 -11.464357 -11.022544 -13.472423 23.007303 -14.331403 -0.546024 -15.060649 -4.378862 17.443410 0.801164 0.241186 1.085060 0.000000 0.000000 0.000000 5.274266 -6.434120 -1.544200 20.361332 3.888617 -1.437450 1.593730 2.137703 -1.625904 0.442461 -0.007301 0.210962 0.000000 0.000000 0.000000 2.419729 2.270994 -1.663151 -7.333440 13.799698 5.312882 -1.912281 44.301932 -10.028255 0.000000 0.000000 0.000000 2.910224 2.452255 -2.010975 1.527917 -39.501224 6.311750 -1.225356 1.620764 -5.765187 -18.624801 -17.920376 -65.219864 -0.864029 -46.135971 -0.374064 0.000000 0.000000 0.000000 3.434100 2.535213 -1.842080 8.240603 19.966610 -9.943327 -0.366139 4.503706 0.062114 -42.396934 14.237909 85.608758 -1.328642 52.033795 1.931210 0.000000 0.000000 0.000000 
2.373433 95.224785 1.520279 0.000000 0.000000 0.000000 4.389997 -6.133252 -1.279560 -38.995664 3.990095 5.111032 30.872800 2.168591 4.402988 0.648594 -0.751787 -2.546010 2.610262 -1.494643 -1.688188 0.000000 0.000000 0.000000 3.934632 -7.058221 -1.172318 -11.462135 -10.989233 -13.552284 22.797162 -14.447020 -0.620851 -15.052105 -4.429446 17.680273 0.856333 0.327628 0.969187 0.000000 0.000000 0.000000 5.449553 -6.527782 -1.437156 20.355938 3.708407 -1.736137 1.552563 2.099155 -1.720533 0.421429 -0.037844 0.193781 0.000000 0.000000 0.000000 2.417159 2.262468 -1.785613 -7.708917 13.537986 5.728773 -2.880449 44.071458 -8.918339 0.000000 0.000000 0.000000 2.913285 2.432412 -2.120496 1.480724 -40.119210 6.354397 -1.480214 1.832840 -5.769291 -17.860931 -18.198657 -65.280838 -1.000732 -45.912313 0.386485 0.000000 0.000000 0.000000 3.441064 2.527168 -1.953157 8.277246 20.240190 -10.113864 -0.212644 4.584364 0.031752 -42.125509 13.932648 85.627985 -1.302177 52.173022 1.919921 0.000000 0.000000 0.000000 
